<?xml version="1.0" encoding="utf-8"?>
<!-- Generator: Adobe Illustrator 19.0.0, SVG Export Plug-In . SVG Version: 6.00 Build 0)  -->
<svg version="1.1" id="Layer_1" xmlns="http://www.w3.org/2000/svg" xmlns:xlink="http://www.w3.org/1999/xlink" x="0px" y="0px"
	 viewBox="227 -760 533.3 1600" style="enable-background:new 227 -760 533.3 1600;" xml:space="preserve">
<style type="text/css">
	.st0{fill:#E62610;}
	.st1{fill:#FFFFFF;}
</style>
<rect x="227" y="-760" class="st0" width="533.3" height="1600"/>
<g>
	<path class="st1" d="M406.7,143c0,23.6,11,50.5,32.9,66.9l0,0l0,0h-29.4v56.4h205.3v-56.4H498.7c-21,0-43.4-16.3-43.4-46.5
		c0-23.3,16.2-47.5,43.4-47.5h116.8V59.5H488.2C441,59.6,406.7,93.4,406.7,143"/>
	<polygon class="st1" points="410.2,-341 550,-290.1 410.2,-239.1 410.2,-174.7 615.4,-259.2 615.4,-320.9 410.2,-405.4 	"/>
	<path class="st1" d="M552.3,326.2c17.6,23.7,21.7,37.3,21.7,58.9c0,19.5-6,34.7-16.6,45.5l-59.8-144.1
		c-22.3,3.1-42.2,11.6-57.3,24.6c-22,18.9-33.6,47-33.6,81.1c0,62,45.7,108.7,106.1,108.7c62,0,106.1-46.8,106.1-114.9
		c0-38.1-18.1-77.1-39.2-95.4L552.3,326.2z M472,434.5c-12.9-9.6-20.5-24.9-20.5-43.4c0-20.3,11.6-35.7,28.7-43.7l40.9,98.5
		C500.2,448.6,483.8,443.3,472,434.5z"/>
	<polygon class="st1" points="563.7,506.3 563.7,634.4 348.8,634.4 348.8,691.5 615.5,691.5 615.5,506.3 	"/>
	<path class="st1" d="M618.9-506.6c0,61.6-45.9,109.9-106.1,109.9c-59.5,0-106.1-48.6-106.1-110.7c0-61.6,45.9-109.9,106.1-109.9
		C572.3-617.3,618.9-568.7,618.9-506.6 M455-506.6c0,31.5,23.9,54.3,57.8,54.3c32.4,0,57.8-24.2,57.8-55.1
		c0-31.5-24.5-54.3-57.8-54.3C480.4-561.7,455-537.5,455-506.6"/>
	<path class="st1" d="M618.9-72.6C618.9-11,573,37.3,512.8,37.3c-59.5,0-106.1-48.6-106.1-110.7c0-61.6,45.9-109.9,106.1-109.9
		C572.3-183.3,618.9-134.7,618.9-72.6 M455-72.6c0,31.5,23.9,54.3,57.8,54.3c32.4,0,57.8-24.2,57.8-55.1c0-31.5-24.5-54.3-57.8-54.3
		C480.4-127.7,455-103.5,455-72.6"/>
	<g>
		<path class="st1" d="M591.1-625v9.1h-5.2v-23.9h5.2v9.1h24.4v5.7H591.1L591.1-625z M585.9-646.1v-6l14-8.9l-14-8.9v-5.9h29.6v5.5
			h-21l14.2,9.1v0.6l-14.2,9.1h21v5.5L585.9-646.1L585.9-646.1z"/>
	</g>
</g>
</svg>
